<svg width="31" height="24" viewBox="0 0 31 24" fill="none" xmlns="http://www.w3.org/2000/svg">
<path d="M12.6531 22.2C12.6135 22.1 12.5999 22.015 12.6133 21.9463C12.6267 21.878 12.5806 21.8214 12.475 21.7777C12.3694 21.7341 12.3167 21.6995 12.3167 21.6748C12.3167 21.6499 12.241 21.631 12.0893 21.6187C11.9377 21.6061 11.862 21.5998 11.862 21.5998H11.6051H11.3876H5.69375C4.82387 21.5998 4.07912 21.3063 3.45957 20.7184C2.84016 20.1309 2.53049 19.4247 2.53049 18.5999V5.39966C2.53049 4.57468 2.84009 3.86862 3.45957 3.28111C4.07912 2.69353 4.82387 2.39964 5.69375 2.39964H12.0202C12.1916 2.39964 12.3263 2.35932 12.4254 2.27788C12.5241 2.19664 12.5899 2.07469 12.623 1.91221C12.656 1.74974 12.6758 1.60302 12.6825 1.47174C12.689 1.34059 12.6858 1.17483 12.6725 0.974855C12.6594 0.774945 12.6528 0.649969 12.6528 0.599729C12.6528 0.437253 12.5902 0.296909 12.4651 0.177909C12.3398 0.0594344 12.1916 0 12.0203 0H5.69375C4.12545 0 2.78428 0.528145 1.67044 1.58437C0.556883 2.64059 0 3.91236 0 5.39986V18.5998C0 20.0872 0.556883 21.3593 1.67044 22.4151C2.78428 23.4719 4.12545 24 5.69375 24H12.0205C12.1919 24 12.3267 23.9592 12.4257 23.8782C12.5244 23.7969 12.5902 23.6751 12.6233 23.5124C12.6562 23.3501 12.6761 23.2027 12.6828 23.0719C12.6893 22.9406 12.6861 22.7752 12.6728 22.5752C12.6596 22.375 12.6531 22.2501 12.6531 22.2Z" fill="#747474"/>
<path d="M30.6244 11.1561L19.8694 0.955822C19.6191 0.718609 19.3225 0.599609 18.9798 0.599609C18.6371 0.599609 18.3404 0.718609 18.0899 0.955822C17.8394 1.19336 17.7143 1.4749 17.7143 1.79972V7.19978H8.85721C8.5143 7.19978 8.21786 7.31878 7.96739 7.55599C7.71693 7.79353 7.5918 8.07488 7.5918 8.3999V15.6001C7.5918 15.925 7.71693 16.2064 7.96739 16.4438C8.21813 16.6808 8.51451 16.8002 8.85721 16.8002H17.7144V22.2002C17.7144 22.5249 17.8395 22.8065 18.09 23.0439C18.3404 23.2814 18.6371 23.4003 18.9799 23.4003C19.3225 23.4003 19.6191 23.2814 19.8695 23.0439L30.6244 12.844C30.8749 12.6063 31.0001 12.3253 31.0001 12.0002C31.0001 11.6753 30.8749 11.3937 30.6244 11.1561Z" fill="#747474"/>
</svg>
