<svg width="24" height="24" viewBox="0 0 24 24" fill="none" xmlns="http://www.w3.org/2000/svg">
<g clip-path="url(#clip0_66_160)">
<path d="M16.0475 19.6833C16.1298 19.7656 16.0964 19.9096 15.985 19.9456C9.38498 22.0593 2.24326 18.6573 0.0472623 12.281C-0.014452 12.101 -0.014452 11.9005 0.0472623 11.7196C0.684119 9.87074 1.75298 8.25074 3.12269 6.94274C3.17498 6.89303 3.25812 6.89474 3.30869 6.94531L6.99612 10.6327C7.02183 10.6585 7.03126 10.6945 7.02269 10.7296C6.06612 14.4539 9.54955 17.9253 13.2593 16.9816C13.3013 16.9705 13.3407 16.9782 13.3715 17.009C13.6784 17.315 15.4673 19.103 16.0475 19.6833Z" fill="#747474"/>
<path d="M19.4402 18.2282C21.5025 16.7779 23.1096 14.7319 23.9539 12.2788C24.0156 12.0988 24.0156 11.9016 23.9539 11.7216C22.2465 6.76136 17.4431 3.42879 12.0002 3.42879C9.87536 3.42879 7.85079 3.9405 6.06793 4.85593L1.46336 0.251357C1.12821 -0.0837857 0.5865 -0.0837857 0.251357 0.251357C-0.0837857 0.5865 -0.0837857 1.12821 0.251357 1.46336L22.5371 23.7491C22.8722 24.0842 23.4139 24.0842 23.7491 23.7491C24.0842 23.4139 24.0842 22.8722 23.7491 22.5371L19.4402 18.2282ZM12.0002 6.85736C14.8365 6.85736 17.1431 9.16393 17.1431 12.0002C17.1431 13.1094 16.7865 14.1345 16.1874 14.9754L9.02507 7.81307C9.86593 7.21393 10.8911 6.85736 12.0002 6.85736Z" fill="#747474"/>
</g>
<defs>
<clipPath id="clip0_66_160">
<rect width="24" height="24" fill="white"/>
</clipPath>
</defs>
</svg>
