<svg width="24" height="24" viewBox="0 0 24 24" fill="none" xmlns="http://www.w3.org/2000/svg">
<path d="M21.3403 11.3864C21.022 11.0682 20.6358 10.9092 20.1811 10.9092H19.6359V7.63628C19.6359 5.5454 18.8861 3.75011 17.3861 2.2501C15.8861 0.750034 14.091 0 11.9998 0C9.90873 0 8.11326 0.750034 6.61343 2.25004C5.11336 3.75011 4.36357 5.54534 4.36357 7.63628V10.9092H3.81819C3.3638 10.9092 2.97735 11.0682 2.65914 11.3864C2.34093 11.7044 2.18188 12.0908 2.18188 12.5456V22.3637C2.18188 22.8181 2.34099 23.2047 2.65914 23.5229C2.97735 23.8408 3.3638 24 3.81819 24H20.1815C20.6362 24 21.0224 23.841 21.3407 23.5229C21.6586 23.2047 21.818 22.8181 21.818 22.3637V12.5454C21.8182 12.091 21.6586 11.7046 21.3403 11.3864ZM16.3634 10.9092H7.6363V7.63628C7.6363 6.43179 8.06251 5.40331 8.91475 4.55119C9.76712 3.69894 10.7954 3.27291 12 3.27291C13.2047 3.27291 14.2328 3.69888 15.0852 4.55119C15.9372 5.40325 16.3634 6.43179 16.3634 7.63628V10.9092Z" fill="#747474"/>
</svg>
