<svg width="24" height="24" viewBox="0 0 24 24" fill="none" xmlns="http://www.w3.org/2000/svg">
<path d="M11.9845 12.4627C7.21094 12.4717 3.26204 16.251 3.02356 21.0271C3.01721 21.1627 3.03851 21.2981 3.08616 21.4251C3.13381 21.5522 3.20681 21.6682 3.30072 21.7661C3.39464 21.864 3.5075 21.9418 3.63244 21.9948C3.75738 22.0477 3.89178 22.0747 4.02746 22.074H19.9806C20.1156 22.0736 20.2492 22.0459 20.3732 21.9925C20.4972 21.9391 20.6091 21.8611 20.7022 21.7633C20.7953 21.6655 20.8676 21.5498 20.9148 21.4233C20.9619 21.2968 20.983 21.162 20.9767 21.0271C20.7379 16.245 16.7797 12.4632 12.0001 12.4627H11.9845Z" fill="#747474"/>
<path d="M12.0006 1.92599C9.47019 1.92599 7.40724 3.99865 7.40723 6.53188C7.40722 9.06511 9.47018 11.1449 12.0006 11.1449C14.531 11.1449 16.6011 9.06511 16.6011 6.53188C16.6011 3.99865 14.531 1.92599 12.0006 1.92599Z" fill="#747474"/>
</svg>
