<svg width="25" height="25" viewBox="0 0 25 25" fill="none" xmlns="http://www.w3.org/2000/svg">
<g clip-path="url(#clip0_121_126)">
<path d="M24.4527 12.4656C22.7097 7.402 17.8062 4 12.25 4C6.69375 4 1.79025 7.402 0.04725 12.4656C-0.01575 12.6494 -0.01575 12.8506 0.04725 13.0344C1.79025 18.098 6.69375 21.5 12.25 21.5C17.8062 21.5 22.7097 18.098 24.4527 13.0344C24.5157 12.8506 24.5157 12.6494 24.4527 12.4656ZM12.25 18C9.35462 18 7 15.6454 7 12.75C7 9.85462 9.35462 7.5 12.25 7.5C15.1454 7.5 17.5 9.85462 17.5 12.75C17.5 15.6454 15.1454 18 12.25 18Z" fill="#747474"/>
</g>
<defs>
<clipPath id="clip0_121_126">
<rect width="24.5" height="24.5" fill="white"/>
</clipPath>
</defs>
</svg>
