<svg width="96" height="96" viewBox="0 0 96 96" fill="none" xmlns="http://www.w3.org/2000/svg">
<path d="M74.6992 95.9494L21.394 96C9.6669 96.0107 0.0639753 86.4264 0.050649 74.6992L8.88548e-06 21.394C-0.0106522 9.66691 9.57362 0.0639753 21.3008 0.050649L74.6059 8.88548e-06C86.3331 -0.0106522 95.936 9.57362 95.9493 21.3008L96 74.606C96.0133 86.3358 86.4264 95.9387 74.6992 95.9494Z" fill="url(#paint0_radial_2005_717)"/>
<path d="M74.6992 95.9494L21.394 96C9.6669 96.0107 0.0639753 86.4264 0.050649 74.6992L8.88548e-06 21.394C-0.0106522 9.66691 9.57362 0.0639753 21.3008 0.050649L74.6059 8.88548e-06C86.3331 -0.0106522 95.936 9.57362 95.9493 21.3008L96 74.606C96.0133 86.3358 86.4264 95.9387 74.6992 95.9494Z" fill="url(#paint1_radial_2005_717)"/>
<path d="M48.0015 66.6584C37.7163 66.6584 29.3447 58.2894 29.3447 48.0015C29.3447 37.7136 37.7163 29.3447 48.0015 29.3447C58.2868 29.3447 66.6584 37.7136 66.6584 48.0015C66.6584 58.2894 58.2868 66.6584 48.0015 66.6584ZM48.0015 34.6752C40.6534 34.6752 34.6752 40.6534 34.6752 48.0015C34.6752 55.3497 40.6534 61.3278 48.0015 61.3278C55.3497 61.3278 61.3278 55.3497 61.3278 48.0015C61.3278 40.6534 55.3497 34.6752 48.0015 34.6752Z" fill="white"/>
<path d="M67.9911 32.0095C70.199 32.0095 71.9889 30.2195 71.9889 28.0116C71.9889 25.8036 70.199 24.0137 67.9911 24.0137C65.7831 24.0137 63.9932 25.8036 63.9932 28.0116C63.9932 30.2195 65.7831 32.0095 67.9911 32.0095Z" fill="white"/>
<path d="M63.993 82.6503H32.0098C21.7246 82.6503 13.353 74.2814 13.353 63.9935V32.0103C13.353 21.7224 21.7246 13.3535 32.0098 13.3535H63.993C74.2782 13.3535 82.6498 21.7224 82.6498 32.0103V63.9935C82.6498 74.2814 74.2782 82.6503 63.993 82.6503ZM32.0098 18.684C24.6617 18.684 18.6835 24.6622 18.6835 32.0103V63.9935C18.6835 71.3416 24.6617 77.3198 32.0098 77.3198H63.993C71.3411 77.3198 77.3192 71.3416 77.3192 63.9935V32.0103C77.3192 24.6622 71.3411 18.684 63.993 18.684H32.0098Z" fill="white"/>
<defs>
<radialGradient id="paint0_radial_2005_717" cx="0" cy="0" r="1" gradientUnits="userSpaceOnUse" gradientTransform="translate(35.6878 96.0693) scale(119.667 119.667)">
<stop stop-color="#FFDD55"/>
<stop offset="0.328" stop-color="#FF543F"/>
<stop offset="0.348" stop-color="#FC5245"/>
<stop offset="0.504" stop-color="#E64771"/>
<stop offset="0.643" stop-color="#D53E91"/>
<stop offset="0.761" stop-color="#CC39A4"/>
<stop offset="0.841" stop-color="#C837AB"/>
</radialGradient>
<radialGradient id="paint1_radial_2005_717" cx="0" cy="0" r="1" gradientUnits="userSpaceOnUse" gradientTransform="translate(15.4479 -1.19855) scale(79.4594 52.9438)">
<stop stop-color="#4168C9"/>
<stop offset="0.999" stop-color="#4168C9" stop-opacity="0"/>
</radialGradient>
</defs>
</svg>
