<svg width="97" height="96" viewBox="0 0 97 96" fill="none" xmlns="http://www.w3.org/2000/svg">
<path d="M82.2699 0H15.0699C7.11702 0 0.669922 6.4471 0.669922 14.4V81.6C0.669922 89.5529 7.11702 96 15.0699 96H82.2699C90.2228 96 96.6699 89.5529 96.6699 81.6V14.4C96.6699 6.4471 90.2228 0 82.2699 0Z" fill="#37AEE2"/>
<path d="M37.9824 75.75C35.9199 75.75 36.1074 75 35.5449 73.125L29.5449 53.4375L75.4824 26.4375" fill="#C8DAEA"/>
<path d="M37.9824 75.75C39.2949 75.75 40.0449 75 40.9824 74.25L49.4199 66.1875L38.9199 59.8125" fill="#A9C9DD"/>
<path d="M38.92 59.8123L64.2325 78.3748C66.8575 80.0623 69.1075 79.1248 69.8575 75.7498L80.17 27.3748C81.1075 23.2498 78.4825 21.3748 75.67 22.6873L15.4825 45.9373C11.545 47.4373 11.545 49.8748 14.7325 50.8123L30.295 55.6873L65.92 32.9998C67.6075 32.0623 69.1075 32.4373 67.9825 33.7498" fill="#F6FBFE"/>
</svg>
