<svg width="97" height="96" viewBox="0 0 97 96" fill="none" xmlns="http://www.w3.org/2000/svg">
<path d="M85.1485 96H11.5327C5.35099 96 0.340088 90.9892 0.340088 84.8075V11.1925C0.340088 5.01084 5.35099 0 11.5327 0H85.1474C91.3292 0 96.3401 5.01084 96.3401 11.1925V84.8064C96.3412 90.9892 91.3303 96 85.1485 96Z" fill="black" stroke="white" stroke-miterlimit="10"/>
<path d="M15.0879 16.7246L40.8905 51.2252L14.9253 79.2749H20.7695L43.5024 54.7164L61.8694 79.2749H81.756L54.5011 42.8341L78.6696 16.7246H72.8254L51.8902 39.3418L34.9745 16.7246H15.0879ZM23.682 21.03H32.8178L73.1607 74.9706H64.0249L23.682 21.03Z" fill="white"/>
</svg>
